# xmcd
#
# Track frame offsets: 
#        150
#        22360
#        43060
#        63222
#        82472
#        100585
#        116000
#        135847
#        157835
#        179105
#
# Disc length: 2674 seconds
#
# Revision: 2
# Processed by: cddbd v1.5.2PL0 Copyright (c) Steve Scherf et al.
# Submitted via: ExactAudioCopyFreeDBPlugin 1.0
#
DISCID=860a700a
DTITLE=吳奇隆 - 雙飛 [98193-2]
DYEAR=1994
DGENRE=
TTITLE0=雙飛
TTITLE1=好想忘了愛
TTITLE2=野火
TTITLE3=像從前一樣
TTITLE4=梁祝
TTITLE5=飆
TTITLE6=銀河
TTITLE7=走在風雨中
TTITLE8=愛一個人忘了自己夠不夠
TTITLE9=情路
EXTD=
EXTT0=
EXTT1=
EXTT2=
EXTT3=
EXTT4=
EXTT5=
EXTT6=
EXTT7=
EXTT8=
EXTT9=
PLAYORDER=
